<svg xmlns="http://www.w3.org/2000/svg" viewBox="0 0 502 482.83"><defs><style>.cls-1,.cls-2,.cls-3,.cls-4,.cls-6{fill:#fff;}.cls-1,.cls-2,.cls-3,.cls-4{stroke:#666;}.cls-1,.cls-2,.cls-3,.cls-4,.cls-5,.cls-9{stroke-miterlimit:10;}.cls-1{stroke-width:3.4px;}.cls-2{stroke-width:6px;}.cls-3{stroke-width:4px;}.cls-4{stroke-width:2px;}.cls-5,.cls-7,.cls-8{fill:#ed7523;}.cls-5{stroke:#ed7523;}.cls-8,.cls-9{font-size:132px;font-family:PTSans-Bold, PT Sans;font-weight:700;}.cls-8{letter-spacing:-0.01em;}.cls-9{stroke:#000;}.cls-10{letter-spacing:-0.08em;}.cls-11{letter-spacing:-0.03em;}</style></defs><g id="Layer_2" data-name="Layer 2"><g id="Layer_3" data-name="Layer 3"><rect class="cls-1" x="223.8" y="1.7" width="54.4" height="54.4"/><rect class="cls-2" x="100" y="85.9" width="76" height="76"/><rect class="cls-2" x="218" y="203.9" width="76" height="76"/><rect class="cls-3" x="322" y="187.9" width="63" height="63"/><rect class="cls-4" x="133" y="193.9" width="44" height="44"/><rect class="cls-4" x="321.5" y="108.4" width="44" height="44"/></g><g id="Layer_12" data-name="Layer 12"><rect class="cls-5" x="209.75" y="87.4" width="84.5" height="85"/><rect class="cls-6" x="218.25" y="95.04" width="67.51" height="69.73"/></g><g id="Layer_11" data-name="Layer 11"><path class="cls-7" d="M220.85,92.24H282c5.25,2.14,7.2,6,7.13,11.69-.22,17.86-.07,35.73-.09,53.6,0,7.2-3.56,10.7-10.84,10.71-17.47,0-35-.14-52.42.08-5.72.08-9.78-1.71-11.94-7.13V99.29A12.27,12.27,0,0,1,220.85,92.24Zm7.76,60.6-1.1-.77V106.2c-4.4.42-5.42,2.51-5.35,6.33.25,13.57.09,27.15.1,40.73,0,1.37.12,2.75.18,4.16h58V112.51c0-4.93,0-4.93-5.43-6.54V153c-4.17-1.52-7.71-2.66-11.13-4.1-4.5-1.9-8.77-2.44-12.67,1.13-3.66-3.57-7.62-3-11.73-1.37C235.85,150.12,232.22,151.46,228.61,152.84Zm4.59-35.07h36.05V105.42c-8.34,4.18-13.42-.19-18-6.36-4.53,6.24-9.67,10.36-18.08,6.41Zm18.49,1.4-14.05,14,4,6.69,10.58-10.52L260.8,140a56.78,56.78,0,0,0,3.41-5.71,3,3,0,0,0-.31-2.68C259.89,127.37,255.75,123.27,251.69,119.17Z"/></g><g id="Layer_13" data-name="Layer 13"><text class="cls-8" transform="translate(5.4 446.3)">D</text><text class="cls-9" transform="translate(121.52 446.3)">S<tspan class="cls-10" x="69.96" y="0">P</tspan><tspan class="cls-11" x="135.3" y="0">A</tspan><tspan x="211.07" y="0">CE</tspan></text></g></g></svg>